<?xml version="1.0" standalone="no"?>
<!DOCTYPE svg PUBLIC "-//W3C//DTD SVG 20010904//EN"
 "http://www.w3.org/TR/2001/REC-SVG-20010904/DTD/svg10.dtd">
<svg version="1.0" xmlns="http://www.w3.org/2000/svg"
 width="512.000000pt" height="512.000000pt" viewBox="0 0 512.000000 512.000000"
 preserveAspectRatio="xMidYMid meet">
<metadata>
Created by potrace 1.14, written by Peter Selinger 2001-2017
</metadata>
<g transform="translate(0.000000,512.000000) scale(0.100000,-0.100000)"
fill="#000000" stroke="none">
<path d="M1280 4640 l0 -480 480 0 480 0 0 480 0 480 -480 0 -480 0 0 -480z"/>
<path d="M2880 4640 l0 -480 480 0 480 0 0 480 0 480 -480 0 -480 0 0 -480z"/>
<path d="M160 4560 l0 -400 400 0 400 0 0 400 0 400 -400 0 -400 0 0 -400z"/>
<path d="M4160 4560 l0 -400 400 0 400 0 0 400 0 400 -400 0 -400 0 0 -400z"/>
<path d="M0 3360 l0 -480 480 0 480 0 0 480 0 480 -480 0 -480 0 0 -480z"/>
<path d="M1280 2560 l0 -1280 1280 0 1280 0 0 1280 0 1280 -1280 0 -1280 0 0
-1280z"/>
<path d="M4160 3360 l0 -480 480 0 480 0 0 480 0 480 -480 0 -480 0 0 -480z"/>
<path d="M0 1760 l0 -480 480 0 480 0 0 480 0 480 -480 0 -480 0 0 -480z"/>
<path d="M4160 1760 l0 -480 480 0 480 0 0 480 0 480 -480 0 -480 0 0 -480z"/>
<path d="M160 560 l0 -400 400 0 400 0 0 400 0 400 -400 0 -400 0 0 -400z"/>
<path d="M1280 480 l0 -480 480 0 480 0 0 480 0 480 -480 0 -480 0 0 -480z"/>
<path d="M2880 480 l0 -480 480 0 480 0 0 480 0 480 -480 0 -480 0 0 -480z"/>
<path d="M4160 560 l0 -400 400 0 400 0 0 400 0 400 -400 0 -400 0 0 -400z"/>
</g>
</svg>
